<svg version="1" xmlns="http://www.w3.org/2000/svg" width="194.667" height="194.667" viewBox="0 0 146.000000 146.000000"><path d="M0 73v73h146V0H0v73zm29.1-22c2.5 1.4 2.8 9.7.3 10.7-1.9.7-3.4-1.3-3.4-4.5 0-1.9-.5-2.2-3.5-2.2H19v14.4c0 13.8.1 14.4 2.3 15.9 3.4 2.3 1 3.9-5.4 3.5-4-.2-5.5-.7-5.7-1.9-.2-1 .5-1.9 1.8-2.2 1.9-.5 2-1.2 2-15.1V55h-3.3c-2.8 0-3.4.4-4.2 3.2-1.5 4.9-3.9 4.3-4.3-1-.5-6.7.4-7.2 13.5-7.2 6.3 0 12.3.5 13.4 1zM81 62.5l6.5 12 .3-9.5c.2-5.9-.1-9.6-.8-9.8-1.6-.6-1.2-3.9.6-4.6 4.9-1.9 9.9.8 6.9 3.7-1.2 1.3-1.5 4.6-1.5 18.1C93 86 92.7 89 91.6 89c-.8 0-4.9-6.3-9.3-14.3l-7.8-14.2-.3 11.5c-.2 9.8 0 11.7 1.4 12.7 2.8 2.1.9 4.3-3.6 4.3s-6.7-2.5-3.7-4.2c1.5-.8 1.7-2.9 1.7-15.2 0-11.9-.3-14.5-1.5-15-1.8-.7-2-3.2-.2-4 .6-.2 2.3-.4 3.7-.3 2.1.2 3.5 2.1 9 12.2zm-25.3 2.3c1.3.8 3.2 2.9 4.3 4.7C65.3 78 59.1 90 49.4 90c-4.8 0-9.2-2.7-11.5-7.2-2.3-4.6-2.4-7.9-.3-12.4 3.6-7.5 11.5-9.9 18.1-5.6zm64 0c1.3.8 3.2 2.9 4.3 4.7 5.3 8.5-.9 20.5-10.6 20.5-4.8 0-9.2-2.7-11.5-7.2-2.3-4.6-2.4-7.9-.3-12.4 3.6-7.5 11.5-9.9 18.1-5.6zM29.4 99.6c1.2.5 1.6 2 1.6 6.1 0 4.6-.3 5.4-1.7 5.1-.9-.2-2.1-1.8-2.5-3.6-.8-2.8-1.3-3.2-4.3-3.2H19v14.6c0 13.9.1 14.6 2 15.1 1.3.3 2 1.2 1.8 2.2-.5 2.3-11.3 2.9-12.2.6-.4-1 .3-1.9 1.9-2.7 2.5-1.1 2.5-1.2 2.5-15.5V104h-4c-3.8 0-4 .2-4 3 0 3.4-2.6 5.2-4.1 2.9-1.2-1.8-.2-9.1 1.4-10.1 1.4-.9 22.8-1.1 25.1-.2zm52.7.4c9.4 1.8 13.3 7.4 13.3 19.1-.1 14.4-5 19.1-19.4 18.7-6.9-.2-8.5-.6-8.8-1.9-.2-1.1.6-1.9 2.2-2.3l2.6-.6v-28l-2.5-1c-2.8-1.1-3.1-2-1.3-3.8 1.5-1.5 6.7-1.5 13.9-.2zm-26.3 13.6c3.4 2.3 6.2 7.4 6.2 11.7 0 11.7-12.1 18-20.4 10.7-6.7-6-7-14.6-.6-20.7 4.8-4.5 9.6-5 14.8-1.7zm62.8-.5c3.2 1.5 4.8 3.2 6.4 6.5 2.9 5.9 2.1 10.2-2.9 15.4-3.3 3.5-4.3 4-8.3 4-7.6 0-12.8-5.8-12.8-14.1 0-5 3.6-10.4 8.4-12.5 4.1-1.8 4.3-1.7 9.2.7z"/><path d="M44.1 69.6c-8.4 7 1 21.2 9.6 14.6 4.6-3.5 4.6-11.9.1-15.4-3.2-2.5-6.1-2.2-9.7.8zM108.1 69.6c-8.4 7 1 21.2 9.6 14.6 4.6-3.5 4.6-11.9.1-15.4-3.2-2.5-6.1-2.2-9.7.8zM76 118.5V133h3.9c5.6 0 6.9-.7 9.1-5.1 2.5-4.7 2.6-12.6.3-17.3-1.8-3.8-6.4-6.6-10.7-6.6H76v14.5zM43.9 118.9c-3.8 3.9-3.9 8.7-.3 13 4.2 5.1 10.7 3.7 13.4-2.8 1.5-3.8.7-7.5-2.5-10.7-3.3-3.2-7-3.1-10.6.5zM108.5 118.4c-3.2 3.2-4 6.9-2.5 10.7 2.7 6.3 8.4 7.7 13.1 3 4-4.1 4-9.1 0-13.2-3.6-3.6-7.3-3.7-10.6-.5z"/></svg>